<svg width="26" height="26" viewBox="0 0 26 26" fill="none" xmlns="http://www.w3.org/2000/svg">
<path d="M3.82152 23.181L1.7793 0.274414H24.2205L22.1763 23.1776L12.9863 25.7254L3.82152 23.181Z" fill="white"/>
<path d="M13.0002 23.7782L20.4263 21.7194L22.1734 2.14746H13.0002V23.7782Z" fill="white"/>
<path d="M13.0002 10.4465H16.7178L16.9746 7.56968H13.0002V4.76025H20.045L19.9776 5.51405L19.287 13.256H13.0002V10.4465Z" fill="black"/>
<path d="M13.0169 17.7427L13.0046 17.7464L9.87582 16.9016L9.67574 14.6609H6.85596L7.24941 19.0722L13.0041 20.6693L13.0169 20.6657V17.7427Z" fill="black"/>
<path d="M16.4789 13.1372L16.1405 16.8995L13.0071 17.7453V20.6683L18.7665 19.0721L18.8087 18.5974L19.2975 13.1372H16.4789Z" fill="black"/>
<path d="M13.0096 4.76025V7.56968H6.22364L6.16737 6.93836L6.0394 5.51405L5.97217 4.76025H13.0096ZM13.0001 10.4469V13.2564H9.91076L9.8545 12.6251L9.72632 11.2007L9.65929 10.4469H13.0001Z" fill="black"/>
</svg>
