<svg width="27" height="27" viewBox="0 0 27 27" fill="none" xmlns="http://www.w3.org/2000/svg">
<path fill-rule="evenodd" clip-rule="evenodd" d="M5.2227 8.6231C5.21144 8.63416 5.20264 10.4099 5.20264 12.5693V16.4967L7.0167 16.4879C9.14904 16.4776 9.33448 16.4576 9.96059 16.1657L10.094 16.1035L10.1108 15.9187C10.1886 15.0848 10.8696 14.4188 11.6707 14.3948C11.8555 14.3893 11.8451 14.3995 11.9736 14.0782C12.2479 13.389 12.3097 12.2201 12.1177 11.3717C11.7738 9.8567 10.697 8.89103 9.09316 8.65892C8.85164 8.62454 5.25381 8.59097 5.2227 8.6231ZM13.4289 12.4029V16.1991L13.3658 16.4447C13.0572 17.6478 11.6291 18.1052 10.6858 17.3023C10.6459 17.2681 10.5554 17.1737 10.4852 17.0915L10.3571 16.9427L10.2101 17.009C9.88936 17.1537 9.16992 17.3584 8.98366 17.3584C8.73661 17.3584 9.25936 18.1724 9.7727 18.5864C10.417 19.1069 10.9424 19.283 11.8442 19.2821C13.5034 19.2797 14.5873 18.4794 15.0368 16.9259C15.1854 16.4109 15.1854 16.4015 15.1783 12.3415L15.1711 8.62126L14.3004 8.6141L13.4289 8.60693V12.4029ZM19.8347 8.62597C17.951 8.7236 16.6646 9.89641 16.6646 11.5162C16.6646 12.8123 17.2715 13.6111 18.7474 14.2595C18.9273 14.3385 19.2223 14.4683 19.4022 14.5481C19.8171 14.7311 19.9002 14.7671 20.1098 14.8568C21.4369 15.4227 21.7343 15.7011 21.7343 16.3798C21.7343 18.0021 19.1744 18.2117 17.4137 16.7325C17.3073 16.6428 17.2123 16.579 17.2019 16.5908L16.4024 17.5385C16.3592 17.5897 16.2976 17.6607 16.2649 17.6951C16.1761 17.7919 16.1871 17.8125 16.4448 18.0316C18.2349 19.5548 20.9901 19.7355 22.5596 18.4329C23.6259 17.5479 23.8971 15.8714 23.1593 14.7209C22.8697 14.2692 22.2534 13.7765 21.7081 13.5608C21.6575 13.5407 21.6033 13.5151 21.5882 13.503C21.572 13.4912 21.5128 13.4648 21.457 13.4439C21.3476 13.4016 21.2391 13.3571 21.1315 13.3104C20.9117 13.2153 20.7508 13.1473 20.4567 13.0259C20.3744 12.9913 20.2176 12.9259 20.1098 12.8796C20.0134 12.8385 19.9164 12.799 19.8187 12.7611C18.9425 12.435 18.4979 12.0103 18.4652 11.4667C18.3868 10.1803 20.2352 9.74781 21.8127 10.6848C21.863 10.7151 21.9949 10.8078 22.107 10.892C22.2182 10.9759 22.318 11.0438 22.3293 11.043C22.3477 11.0414 23.0017 10.2458 23.1832 10.0037L23.2567 9.90603L23.1304 9.79345C22.8905 9.57834 22.4908 9.29363 22.2646 9.17614C22.0831 9.08179 22.0311 9.0562 21.912 9.0034C21.2987 8.72913 20.5304 8.58994 19.8347 8.62597ZM8.64533 10.3123C9.65275 10.4521 10.207 11.1797 10.2508 12.4197C10.2948 13.6813 9.73442 14.552 8.73968 14.768C8.48302 14.824 7.28544 14.8719 7.12948 14.8328L7.06316 14.8159V12.5679C7.06316 11.3318 7.07033 10.3117 7.07995 10.3021C7.1086 10.274 8.4296 10.2828 8.64533 10.3123ZM11.4333 15.076C10.3587 15.5093 10.6186 17.0614 11.765 17.0565C12.8717 17.0516 13.1906 15.5901 12.1897 15.1104C12.0018 15.0201 11.6148 15.0025 11.4333 15.076Z" fill="white"/>
<path fill-rule="evenodd" clip-rule="evenodd" d="M5.18824 8.64062C5.18169 8.65904 5.17944 10.4363 5.18251 12.5901L5.18967 16.507L5.20256 12.5573C5.20973 10.3851 5.21218 8.60767 5.20809 8.60767C5.204 8.60767 5.1954 8.62302 5.18824 8.64041M8.51017 8.62691C8.56461 8.63264 8.65242 8.63264 8.70686 8.62691C8.76049 8.62138 8.71648 8.61667 8.60862 8.61667C8.50055 8.61667 8.45572 8.62138 8.51037 8.62691M13.4153 12.4198C13.4153 14.5235 13.4186 15.3885 13.4224 14.3411C13.4265 13.2938 13.4265 11.5724 13.4224 10.5163C13.4184 9.45933 13.4153 10.3163 13.4153 12.4198ZM15.1776 10.9983C15.1815 12.3136 15.187 13.9909 15.1911 14.7257C15.1952 15.4605 15.2007 14.3843 15.2046 12.3351C15.2079 10.2852 15.2013 8.60787 15.1911 8.60787C15.1798 8.60787 15.1743 9.68386 15.1774 10.9985M19.7628 8.62691C19.8098 8.63264 19.8811 8.63264 19.9204 8.62691C19.9593 8.62056 19.921 8.61585 19.8346 8.61667C19.7482 8.61667 19.7163 8.62138 19.7628 8.62691ZM20.2343 8.62691C20.2808 8.63264 20.3576 8.63264 20.4046 8.62691C20.4511 8.62138 20.4128 8.61667 20.3191 8.61667C20.2255 8.61667 20.1873 8.62138 20.2343 8.62691ZM17.4104 9.62328L17.2409 9.80012L17.4178 9.63065C17.5152 9.53772 17.5944 9.4579 17.5944 9.45381C17.5944 9.43477 17.568 9.45954 17.4104 9.62328ZM19.8674 10.199C19.8995 10.2046 19.9529 10.2046 19.985 10.199C20.0178 10.1927 19.9912 10.187 19.9265 10.187C19.8618 10.187 19.8346 10.1927 19.8674 10.199ZM20.2079 10.199C20.2401 10.2046 20.2935 10.2046 20.3256 10.199C20.3584 10.1927 20.3318 10.187 20.2671 10.187C20.2024 10.187 20.1752 10.1927 20.2079 10.199ZM7.07496 10.3182C7.0678 10.3358 7.06534 11.3583 7.06882 12.5903L7.07578 14.8307L7.08868 12.5575C7.09584 11.308 7.09891 10.2854 7.0942 10.2854C7.09011 10.2854 7.08151 10.2997 7.07496 10.3182ZM18.4651 11.2808C18.4651 11.3311 18.4706 11.352 18.477 11.3264C18.4834 11.296 18.4834 11.2647 18.477 11.2343C18.4708 11.2097 18.4651 11.2302 18.4651 11.2808ZM16.6349 11.5294C16.6349 11.6733 16.639 11.7292 16.6445 11.6533C16.6502 11.5765 16.6502 11.459 16.6445 11.3913C16.639 11.3231 16.6349 11.3856 16.6349 11.5294ZM18.4651 11.5421C18.4651 11.5925 18.4706 11.6134 18.477 11.5886C18.4834 11.5582 18.4834 11.5269 18.477 11.4965C18.4708 11.4719 18.4651 11.4918 18.4651 11.5421ZM18.7721 12.1515C18.8368 12.2202 18.8929 12.2763 18.897 12.2763C18.9168 12.2763 18.896 12.253 18.7801 12.1443L18.6553 12.0276L18.7719 12.1515M10.2436 12.5248C10.2436 12.7416 10.2477 12.8263 10.2524 12.7135C10.2571 12.6016 10.2571 12.4249 10.2524 12.3209C10.2475 12.217 10.2436 12.3089 10.2436 12.5248ZM12.2335 12.4984C12.2335 12.6576 12.2384 12.719 12.2431 12.6351C12.2488 12.552 12.2488 12.4225 12.2431 12.3473C12.2376 12.2722 12.2335 12.3402 12.2335 12.4984ZM7.41166 14.8368C7.58113 14.8416 7.85294 14.8416 8.01362 14.8368C8.17531 14.8321 8.03613 14.828 7.70435 14.8289C7.37318 14.8289 7.24137 14.8321 7.41166 14.8368ZM11.7324 15.0184C11.7626 15.0256 11.794 15.0256 11.8241 15.0184C11.8497 15.0121 11.829 15.0063 11.7787 15.0063C11.7283 15.0063 11.7074 15.0121 11.7322 15.0184M10.1013 15.9882C10.094 16.0633 10.0981 16.1153 10.1099 16.1034C10.1222 16.0911 10.1275 16.0297 10.1228 15.9667L10.114 15.8523L10.1011 15.9882M23.5763 16.2319C23.5763 16.34 23.5812 16.384 23.5868 16.3302C23.5924 16.2648 23.5924 16.1991 23.5868 16.1337C23.5812 16.0792 23.5765 16.1241 23.5765 16.2319M15.1638 16.2319C15.1638 16.2825 15.1694 16.3032 15.1757 16.2776C15.1829 16.2476 15.1829 16.2164 15.1757 16.1865C15.1696 16.1609 15.1638 16.1816 15.1638 16.2319ZM6.01002 16.5134C6.4466 16.5175 7.15417 16.5175 7.58195 16.5134C8.00973 16.5093 7.65236 16.5062 6.78718 16.5062C5.92283 16.5062 5.57344 16.5095 6.01002 16.5134ZM12.4717 16.7885L12.3679 16.8996L12.4791 16.7964C12.5831 16.6998 12.6029 16.6773 12.5831 16.6773C12.579 16.6773 12.5286 16.7277 12.4719 16.7885M16.1801 17.7942C16.1801 17.8086 16.2184 17.855 16.2648 17.8974L16.3504 17.9742L16.272 17.8821C16.2424 17.8488 16.2139 17.8147 16.1864 17.7797C16.1831 17.7744 16.1801 17.7807 16.1801 17.7942ZM9.49835 18.3604C9.60642 18.4762 9.63037 18.4971 9.63037 18.4771C9.63037 18.473 9.57429 18.4171 9.50552 18.3532L9.38169 18.2366L9.49835 18.3604ZM14.1884 18.4195C14.1253 18.4842 14.0789 18.537 14.086 18.537C14.0932 18.537 14.1515 18.4842 14.215 18.4195C14.2788 18.3549 14.3251 18.3021 14.3179 18.3021C14.3108 18.3021 14.2524 18.3549 14.1884 18.4195ZM11.6802 19.3148C11.7105 19.322 11.7421 19.322 11.7723 19.3148C11.7969 19.3085 11.7764 19.3027 11.7259 19.3027C11.6755 19.3027 11.6546 19.3085 11.6802 19.3148ZM19.841 19.3156C19.8737 19.322 19.9265 19.322 19.9595 19.3156C19.9914 19.3093 19.965 19.3044 19.9001 19.3044C19.8354 19.3044 19.809 19.3093 19.841 19.3156Z" fill="white"/>
<path fill-rule="evenodd" clip-rule="evenodd" d="M8.4575 8.59993C8.48308 8.60607 8.52463 8.60607 8.5496 8.59993C8.57498 8.59338 8.55431 8.58765 8.50396 8.58765C8.45361 8.58765 8.43273 8.59338 8.4575 8.59993ZM7.10642 10.3045C7.09925 10.3155 7.27261 10.3213 7.49101 10.3172C8.21454 10.3051 8.28802 10.2957 7.69978 10.29C7.37987 10.2875 7.11276 10.2941 7.10621 10.3043M16.6064 11.5293C16.6072 11.6011 16.6119 11.6275 16.6182 11.5876C16.624 11.5477 16.624 11.4894 16.6174 11.4572C16.6113 11.4245 16.6064 11.4572 16.6064 11.5293ZM11.9555 19.3159C11.9882 19.3222 12.0353 19.3214 12.0602 19.315C12.0858 19.3087 12.0586 19.3038 12.0009 19.3038C11.9436 19.3038 11.9235 19.3095 11.9555 19.3159Z" fill="white"/>
<path fill-rule="evenodd" clip-rule="evenodd" d="M6.01031 8.6014C6.46183 8.60549 7.19274 8.60549 7.63484 8.6014C8.07695 8.59731 7.7075 8.59424 6.81367 8.59424C5.92066 8.59424 5.5592 8.59751 6.01011 8.6014M13.8534 8.6014C14.0933 8.60631 14.4946 8.60631 14.7441 8.6014C14.9936 8.59731 14.7969 8.59342 14.3067 8.59342C13.8167 8.59342 13.6129 8.59751 13.8536 8.6016M20.0377 8.59976C20.0625 8.60631 20.1043 8.60631 20.1298 8.59976C20.1544 8.59362 20.1339 8.58789 20.0834 8.58789C20.033 8.58789 20.0122 8.59342 20.0377 8.59976ZM21.7145 16.4023C21.7145 16.46 21.72 16.4807 21.7263 16.4479C21.7329 16.4152 21.7329 16.3681 21.7255 16.3432C21.7194 16.3176 21.7145 16.3448 21.7145 16.4025M19.8548 17.7176C19.8938 17.7239 19.9587 17.7239 19.9986 17.7176C20.0377 17.712 20.0058 17.7073 19.9266 17.7073C19.8476 17.7073 19.8148 17.712 19.8548 17.7176Z" fill="white"/>
</svg>
