<svg width="26" height="27" viewBox="0 0 26 27" fill="none" xmlns="http://www.w3.org/2000/svg">
<path d="M9.24219 26.2031C11.6594 26.2031 13.6094 24.2531 13.6094 21.8359V17.4688H9.24219C6.825 17.4688 4.875 19.4188 4.875 21.8359C4.875 24.2531 6.825 26.2031 9.24219 26.2031ZM4.875 13.1016C4.875 10.6844 6.825 8.73438 9.24219 8.73438H13.6094V17.4688H9.24219C6.825 17.4688 4.875 15.5188 4.875 13.1016ZM4.875 4.36719C4.875 1.95 6.825 0 9.24219 0H13.6094V8.73438H9.24219C6.825 8.73438 4.875 6.78437 4.875 4.36719ZM13.6094 0H17.9766C20.3938 0 22.3438 1.95 22.3438 4.36719C22.3438 6.78437 20.3938 8.73438 17.9766 8.73438H13.6094V0ZM22.3438 13.1016C22.3438 15.5188 20.3938 17.4688 17.9766 17.4688C15.5594 17.4688 13.6094 15.5188 13.6094 13.1016C13.6094 10.6844 15.5594 8.73438 17.9766 8.73438C20.3938 8.73438 22.3438 10.6844 22.3438 13.1016Z" fill="white"/>
</svg>
