<svg width="27" height="11" viewBox="0 0 27 11" fill="none" xmlns="http://www.w3.org/2000/svg">
<g clip-path="url(#clip0_800_606)">
<path fill-rule="evenodd" clip-rule="evenodd" d="M2.12973 3.1673C2.07715 3.1673 2.064 3.14101 2.09029 3.10158L2.36636 2.74664C2.39265 2.7072 2.45838 2.68091 2.51096 2.68091H7.20402C7.25661 2.68091 7.26975 2.72035 7.24346 2.75978L7.01998 3.10158C6.99369 3.14101 6.92796 3.18045 6.88852 3.18045L2.12973 3.1673Z" fill="white"/>
<path fill-rule="evenodd" clip-rule="evenodd" d="M0.14438 4.37678C0.0917969 4.37678 0.078651 4.35048 0.104943 4.31105L0.381005 3.95611C0.407297 3.91667 0.473026 3.89038 0.525609 3.89038H6.52011C6.57269 3.89038 6.59899 3.92982 6.58584 3.96926L6.48067 4.28476C6.46753 4.33734 6.41494 4.36363 6.36236 4.36363L0.14438 4.37678Z" fill="white"/>
<path fill-rule="evenodd" clip-rule="evenodd" d="M3.32504 5.58625C3.27246 5.58625 3.25932 5.54681 3.28561 5.50737L3.46965 5.17873C3.49594 5.13929 3.54852 5.09985 3.60111 5.09985H6.23027C6.28286 5.09985 6.30915 5.13929 6.30915 5.19187L6.28286 5.50737C6.28286 5.55996 6.23027 5.5994 6.19084 5.5994L3.32504 5.58625Z" fill="white"/>
<path fill-rule="evenodd" clip-rule="evenodd" d="M16.9706 2.93076C16.1424 3.14109 15.5772 3.29884 14.7621 3.50918C14.5649 3.56176 14.5518 3.5749 14.3809 3.37772C14.1837 3.15424 14.0391 3.00963 13.763 2.87818C12.9349 2.47065 12.133 2.58897 11.3836 3.07536C10.4897 3.65378 10.0296 4.50826 10.0428 5.57307C10.0559 6.62474 10.7789 7.49236 11.8175 7.63697C12.7114 7.75528 13.4607 7.43978 14.0522 6.76934C14.1706 6.62474 14.2757 6.46699 14.4072 6.28295C13.9339 6.28295 13.3424 6.28295 11.87 6.28295C11.594 6.28295 11.5282 6.11205 11.6203 5.88857C11.7912 5.48105 12.1067 4.79747 12.2907 4.45568C12.3301 4.3768 12.4222 4.24534 12.6194 4.24534H17.4044C17.3781 4.60028 17.3781 4.95522 17.3256 5.31015C17.181 6.25666 16.826 7.12428 16.2476 7.88674C15.3011 9.13559 14.0654 9.9112 12.501 10.1215C11.2127 10.2924 10.0165 10.0427 8.96481 9.25391C7.99202 8.51774 7.43989 7.54495 7.29529 6.33553C7.12439 4.90263 7.54506 3.61434 8.41268 2.4838C9.34604 1.26124 10.5817 0.485633 12.0935 0.209571C13.3292 -0.0139087 14.5124 0.130696 15.5772 0.853716C16.2739 1.31382 16.7734 1.94482 17.1021 2.70728C17.181 2.82559 17.1284 2.89132 16.9706 2.93076Z" fill="white"/>
<path d="M21.3224 10.2005C20.1262 10.1742 19.0351 9.83242 18.1149 9.04367C17.3393 8.37323 16.8529 7.51875 16.6951 6.50652C16.4585 5.02104 16.866 3.70646 17.7599 2.53648C18.7196 1.27448 19.8764 0.617189 21.4408 0.341127C22.7816 0.104502 24.0436 0.23596 25.1873 1.01156C26.2258 1.72144 26.87 2.68109 27.0409 3.94309C27.2644 5.71777 26.7517 7.16382 25.5291 8.39952C24.6615 9.2803 23.5967 9.83242 22.3741 10.0822C22.0192 10.1479 21.6642 10.1611 21.3224 10.2005ZM24.4512 4.88959C24.438 4.71869 24.438 4.58723 24.4117 4.45577C24.1751 3.15434 22.9788 2.41817 21.73 2.70738C20.5074 2.98344 19.7187 3.75904 19.4294 4.99475C19.1928 6.02013 19.6924 7.05865 20.6389 7.47932C21.3619 7.79482 22.0849 7.75538 22.7816 7.40044C23.8202 6.86146 24.3854 6.02013 24.4512 4.88959Z" fill="white"/>
</g>
<defs>
<clipPath id="clip0_800_606">
<rect width="27" height="10.1739" fill="white"/>
</clipPath>
</defs>
</svg>
