<svg width="28" height="27" viewBox="0 0 28 27" fill="none" xmlns="http://www.w3.org/2000/svg">
<path d="M17.3625 8.24849H17.4444L17.4035 8.20755L20.269 5.34206V5.28065C17.8538 3.152 14.5175 2.41516 11.4269 3.33621C8.33621 4.25726 5.96194 6.7134 5.10229 9.82451C5.14323 9.80404 5.20463 9.78358 5.26604 9.78358C6.33036 9.08767 7.59937 8.67831 8.92978 8.67831C9.38007 8.67831 9.8099 8.71925 10.2397 8.80112C10.2602 8.78065 10.2807 8.78065 10.3011 8.78065C12.1432 6.75434 15.2543 6.50872 17.383 8.24849H17.3625Z" fill="white"/>
<path d="M22.9913 9.78365C22.5206 8.04388 21.5381 6.46786 20.1668 5.26025L17.2399 8.16669C18.4679 9.16961 19.1843 10.6842 19.1434 12.2603V12.7719C22.6024 12.7719 22.6024 17.9298 19.1434 17.9298H13.9445V22.0234H13.9241L13.9445 22.0643H19.1434C22.1317 22.0848 24.772 20.1608 25.6521 17.3363C26.5323 14.5117 25.4475 11.4415 22.9913 9.78365Z" fill="white"/>
<path d="M8.84797 22.0847H14.231V17.9502H8.84797C8.45908 17.9502 8.09066 17.8684 7.7427 17.7251L4.63159 20.7134V20.7543C5.85966 21.6345 7.33335 22.1052 8.86843 22.1052L8.84797 22.0847Z" fill="white"/>
<path d="M9.09353 8.57593C6.04382 8.5964 3.34207 10.4794 2.35961 13.2426C1.37716 16.0262 2.35961 19.0759 4.77482 20.8771L7.9678 17.8274C6.20756 17.0701 5.79821 14.8596 7.14909 13.5701C8.49996 12.2601 10.7924 12.6695 11.5906 14.3479L14.7836 11.2981C13.4327 9.59932 11.3245 8.59639 9.09353 8.61686V8.57593Z" fill="white"/>
</svg>
