<svg width="26" height="26" viewBox="0 0 26 26" fill="none" xmlns="http://www.w3.org/2000/svg">
<path d="M0.40625 0.203125V25.5938H25.7969V0.203125H0.40625ZM13.8367 21.8386C13.4619 22.6001 12.7465 23.1004 11.9175 23.3419C10.6438 23.6344 9.42541 23.4676 8.51906 22.9237C7.91253 22.5515 7.43884 21.9787 7.1173 21.3188L9.05105 20.1346C9.06791 20.1417 9.11869 20.2335 9.18653 20.3521C9.43313 20.7653 9.6458 21.0578 10.0638 21.2631C10.4745 21.4033 11.3762 21.4929 11.7244 20.7701C11.937 20.4025 11.8694 19.2207 11.8694 17.9132C11.8692 15.8586 11.8787 13.8125 11.8787 11.7812H14.2571C14.2571 14.0156 14.2693 16.1318 14.2571 18.3121C14.2622 19.6487 14.3782 20.8402 13.8367 21.8386ZM23.7033 21.1666C22.8765 23.9945 18.2672 24.0864 16.4253 22.218C16.0361 21.7782 15.7922 21.5485 15.56 21.0409C16.5388 20.4778 16.5388 20.4778 17.4913 19.9268C18.0087 20.722 18.487 21.1593 19.3477 21.3383C20.5152 21.4809 21.6899 21.0797 21.4264 19.8396C21.1557 18.8268 19.0357 18.5805 17.5929 17.4974C16.1281 16.5137 15.7848 14.1233 16.9886 12.7575C17.3897 12.2523 18.0739 11.8753 18.7917 11.6941L19.5408 11.5972C20.9792 11.5682 21.8782 11.948 22.5381 12.685C22.7218 12.871 22.8717 13.0717 23.152 13.5066C22.3858 13.9949 22.3882 13.9902 21.2908 14.7008C21.0563 14.1958 20.6674 13.8789 20.2562 13.7412C19.618 13.5478 18.8132 13.7581 18.6463 14.4324C18.5884 14.6402 18.6004 14.8336 18.6924 15.1769C18.951 15.7666 19.8187 16.0229 20.5971 16.3806C22.8377 17.2894 23.5944 18.2638 23.7805 19.4236C23.9596 20.4222 23.7372 21.07 23.7033 21.1666Z" fill="white"/>
</svg>
