<svg width="27" height="27" viewBox="0 0 27 27" fill="none" xmlns="http://www.w3.org/2000/svg">
<path d="M0.422086 19.0811H1.28862V15.6591L2.63018 18.6423C2.78838 19.0035 3.00502 19.1311 3.43005 19.1311C3.85509 19.1311 4.0635 19.0035 4.2217 18.6423L5.56327 15.6591V19.0811H6.4298V15.6648C6.4298 15.3315 6.29648 15.1701 6.02142 15.087C5.36309 14.8815 4.92138 15.0594 4.72141 15.5038L3.40495 18.4481L2.13026 15.5036C1.93852 15.0594 1.48859 14.8815 0.83025 15.0868C0.555188 15.1701 0.421875 15.3313 0.421875 15.6645V19.0811H0.422086ZM7.15057 16.2955H8.01689V18.1808C8.00887 18.2831 8.0498 18.5236 8.52441 18.5312C8.76656 18.535 10.3937 18.5312 10.4089 18.5312V16.2862H11.2774C11.2814 16.2862 11.2765 19.3477 11.2765 19.3604C11.2811 20.1155 10.3397 20.2794 9.90562 20.2921H7.16934V19.7091C7.17398 19.7091 9.90373 19.7097 9.91048 19.7088C10.4684 19.65 10.4024 19.3728 10.4022 19.2796V19.0522H8.56048C7.70365 19.0444 7.15774 18.6704 7.15078 18.2401C7.15036 18.2006 7.16955 16.3144 7.15057 16.2955ZM11.9454 19.0811H14.437C14.7287 19.0811 15.0122 19.0201 15.2371 18.9147C15.6119 18.7425 15.7952 18.5092 15.7952 18.2034V17.5702C15.7952 17.3202 15.587 17.0867 15.1786 16.9314C14.962 16.8479 14.6952 16.8038 14.4368 16.8038H13.3867C13.0368 16.8038 12.8701 16.6983 12.8286 16.4651C12.8204 16.4372 12.8204 16.4151 12.8204 16.3872V15.9928C12.8204 15.9706 12.8204 15.9483 12.8286 15.9206C12.8701 15.7428 12.9619 15.6928 13.2703 15.665L13.3536 15.6595H15.8285V15.0819H13.3954C13.0454 15.0819 12.8621 15.1041 12.6955 15.1541C12.1789 15.3152 11.9536 15.5707 11.9536 16.0151V16.5205C11.9536 16.9095 12.3955 17.2428 13.137 17.3206C13.2205 17.3259 13.3036 17.3318 13.3869 17.3318H14.287C14.3203 17.3318 14.3537 17.3318 14.3788 17.3371C14.6538 17.3592 14.7703 17.4094 14.8538 17.5092C14.8752 17.529 14.8922 17.553 14.9036 17.5798C14.9151 17.6066 14.9207 17.6355 14.9202 17.6647V18.1703C14.9202 18.2312 14.8787 18.3091 14.7954 18.3757C14.7205 18.4424 14.5954 18.4869 14.4288 18.4981L14.337 18.5036H11.9454V19.0811ZM21.2015 18.0758C21.2015 18.67 21.6432 19.0033 22.5347 19.0701C22.618 19.0756 22.7013 19.0811 22.7846 19.0811H25.0429V18.5036H22.7682C22.2598 18.5036 22.0683 18.3757 22.0683 18.0701V15.0815H21.2017V18.0758H21.2015ZM16.3483 18.1057V16.0459C16.3483 15.5228 16.7157 15.2053 17.4422 15.1051C17.5196 15.094 17.5977 15.0885 17.6759 15.0885H19.321C19.4046 15.0885 19.4797 15.094 19.563 15.1051C20.2894 15.2053 20.6571 15.5226 20.6571 16.0459V18.1057C20.6571 18.5306 20.501 18.7575 20.1414 18.9056L20.9952 19.6762H19.9889L19.2983 19.0526L18.603 19.0967H17.6759C17.5037 19.0956 17.3324 19.0713 17.1667 19.0244C16.6155 18.8742 16.3483 18.5846 16.3483 18.1057ZM17.2838 18.0557C17.2838 18.0836 17.292 18.1116 17.3005 18.145C17.3505 18.3844 17.5762 18.5179 17.9183 18.5179H18.7055L17.9824 17.865H18.9888L19.6193 18.4346C19.7357 18.3723 19.8121 18.2778 19.8389 18.1561C19.8471 18.1283 19.8471 18.1005 19.8471 18.0726V16.0965C19.8471 16.0744 19.8471 16.0463 19.8389 16.0185C19.7887 15.7957 19.5632 15.6679 19.2293 15.6679H17.9181C17.5342 15.6679 17.2836 15.835 17.2836 16.0965V18.0557H17.2838ZM25.8053 14.1228C25.2726 14.1082 24.8657 14.1578 24.5177 14.3044C24.4188 14.3462 24.2612 14.3472 24.2452 14.4711C24.2994 14.5282 24.3078 14.6132 24.351 14.6833C24.4342 14.8176 24.5744 14.9978 24.6995 15.0921C24.836 15.1952 24.9769 15.3057 25.1237 15.3952C25.3842 15.5542 25.6753 15.6449 25.9265 15.804C26.0744 15.8981 26.2212 16.0162 26.3657 16.1223C26.4372 16.1744 26.4849 16.256 26.5779 16.2887V16.2737C26.5292 16.2117 26.5165 16.1265 26.4718 16.0615L26.2748 15.8645C26.0822 15.6089 25.8379 15.3846 25.5779 15.1982C25.3707 15.0495 24.9071 14.8484 24.8206 14.6073L24.8054 14.5924C24.9522 14.5757 25.1243 14.5225 25.2598 14.4862C25.4876 14.4251 25.6911 14.4409 25.9263 14.3801L26.2444 14.289V14.2287C26.1257 14.1068 26.0407 13.9452 25.9111 13.8349C25.5722 13.5461 25.2018 13.2575 24.8206 13.0166C24.6092 12.8833 24.3479 12.7966 24.1237 12.6836C24.0486 12.6454 23.9161 12.6258 23.8661 12.5623C23.7482 12.4123 23.6843 12.2223 23.5934 12.0474C23.3992 11.6696 23.2173 11.2857 23.0481 10.8961C22.9333 10.6335 22.8582 10.3744 22.715 10.1388C22.0271 9.00799 21.2868 8.3254 20.1399 7.65462C19.8958 7.51181 19.602 7.4557 19.2917 7.38208L18.7918 7.35171C18.6903 7.30931 18.5844 7.18486 18.4889 7.12453C18.1088 6.88448 17.1342 6.36241 16.8528 7.04901C16.6752 7.48228 17.1186 7.905 17.277 8.12458C17.3882 8.27857 17.5308 8.45112 17.6103 8.62429C17.6626 8.7382 17.6715 8.85232 17.7164 8.97276C17.8263 9.26934 17.9223 9.59229 18.0647 9.86629C18.1366 10.0051 18.2161 10.1513 18.3071 10.2753C18.3627 10.3512 18.4585 10.385 18.4735 10.5025C18.38 10.6333 18.3746 10.8366 18.322 11.0022C18.0854 11.7487 18.1746 12.6766 18.519 13.2291C18.6247 13.3989 18.8736 13.7625 19.2158 13.6229C19.5151 13.501 19.4484 13.1232 19.5341 12.7897C19.5535 12.7144 19.5415 12.6587 19.5794 12.6081V12.6232L19.8522 13.1685C20.054 13.4936 20.412 13.833 20.7155 14.0623C20.8729 14.181 20.9969 14.3867 21.2003 14.4561V14.4407H21.1853C21.1456 14.3793 21.0843 14.354 21.0336 14.3044C20.9151 14.1882 20.7833 14.0439 20.6854 13.9106C20.4093 13.536 20.1654 13.1257 19.9431 12.6988C19.837 12.495 19.7448 12.2701 19.6554 12.0626C19.6208 11.9826 19.6212 11.8616 19.5495 11.8204C19.4512 11.9723 19.3071 12.0953 19.2312 12.2748C19.1101 12.5617 19.0945 12.9116 19.0496 13.2744L19.0192 13.2894C18.808 13.2386 18.734 13.0213 18.6555 12.835C18.4572 12.364 18.4203 11.6053 18.595 11.0629C18.6401 10.9225 18.8441 10.4805 18.7614 10.3508C18.722 10.2215 18.5918 10.1468 18.5193 10.0477C18.4241 9.91504 18.3428 9.77289 18.2769 9.62351C18.1145 9.25626 18.0387 8.84388 17.8681 8.47242C17.7862 8.29481 17.6483 8.1153 17.5348 7.95752C17.4093 7.78244 17.2686 7.65377 17.1712 7.44241C17.1366 7.36732 17.0895 7.24687 17.1408 7.16967C17.157 7.11757 17.1804 7.09584 17.2319 7.07876C17.3197 7.01104 17.5643 7.10133 17.6559 7.1393C17.8989 7.24033 18.1016 7.33631 18.3075 7.47258C18.4062 7.53818 18.506 7.66474 18.6256 7.69976H18.7618C18.9751 7.74869 19.2141 7.71473 19.4132 7.77527C19.7655 7.88243 20.081 8.04886 20.3675 8.22984C21.2406 8.78123 21.9542 9.56592 22.4427 10.5021C22.5212 10.6529 22.5553 10.7965 22.6243 10.9564C22.764 11.2787 22.9399 11.6105 23.0787 11.9259C23.2173 12.2404 23.3525 12.5579 23.5484 12.8196C23.6514 12.9572 24.0492 13.031 24.23 13.1073C24.3567 13.1609 24.5643 13.2168 24.6843 13.289C24.9136 13.4273 25.1359 13.5921 25.3509 13.7435C25.4583 13.8199 25.7888 13.9859 25.8053 14.1228ZM19.0344 8.35176C18.9425 8.35026 18.8509 8.36047 18.7616 8.38214V8.39712H18.7768C18.8298 8.50617 18.9232 8.5762 18.9888 8.66986L19.1405 8.98795L19.1554 8.97297C19.2493 8.90695 19.2921 8.80127 19.2917 8.63969C19.254 8.60004 19.2485 8.55047 19.216 8.50343C19.173 8.44015 19.089 8.40471 19.0344 8.35176Z" fill="white"/>
</svg>
