<svg width="27" height="27" viewBox="0 0 27 27" fill="none" xmlns="http://www.w3.org/2000/svg">
<path d="M24.1155 17.033C24.0543 17.033 23.9935 17.0169 23.94 16.9857L23.381 16.655C23.2974 16.6083 23.3382 16.5917 23.3658 16.5822C23.4772 16.5434 23.4997 16.5343 23.6185 16.4672C23.6309 16.4603 23.6472 16.4628 23.66 16.4704L24.0893 16.7254C24.0973 16.7297 24.1062 16.7319 24.1152 16.7319C24.1243 16.7319 24.1332 16.7297 24.1412 16.7254L25.8154 15.7591C25.8233 15.7545 25.8298 15.7478 25.8343 15.7399C25.8388 15.7319 25.8412 15.7229 25.8411 15.7137V13.7816C25.8411 13.7723 25.8388 13.7632 25.8342 13.7551C25.8297 13.747 25.8231 13.7402 25.8152 13.7354L24.1416 12.7699C24.1337 12.7655 24.1248 12.7633 24.1158 12.7633C24.1067 12.7633 24.0978 12.7655 24.0899 12.7699L22.4166 13.7356C22.4086 13.7404 22.402 13.7471 22.3974 13.7552C22.3928 13.7632 22.3903 13.7723 22.3902 13.7816V15.7137C22.3902 15.7323 22.4005 15.7498 22.4166 15.7585L22.8751 16.0236C23.1241 16.1479 23.2766 16.0015 23.2766 15.8542V13.9463C23.2766 13.9195 23.2983 13.8982 23.3251 13.8982H23.5375C23.5639 13.8982 23.5858 13.9195 23.5858 13.9463V15.8542C23.5858 16.1862 23.405 16.3767 23.0901 16.3767C22.9933 16.3767 22.9171 16.3767 22.7045 16.2721L22.2655 16.0194C22.2121 15.9883 22.1678 15.9437 22.137 15.8901C22.1062 15.8365 22.09 15.7758 22.09 15.714V13.7818C22.09 13.6563 22.1569 13.5392 22.2655 13.4768L23.9397 12.5092C23.9937 12.4798 24.0541 12.4644 24.1156 12.4644C24.177 12.4644 24.2374 12.4798 24.2914 12.5092L25.9656 13.4768C26.074 13.5394 26.1413 13.6565 26.1413 13.7818V15.714C26.1412 15.7758 26.1249 15.8365 26.0941 15.8901C26.0633 15.9436 26.019 15.9882 25.9656 16.0194L24.2914 16.9859C24.2379 17.0169 24.1772 17.0332 24.1155 17.033ZM24.6329 15.7017C23.8999 15.7017 23.7465 15.3653 23.7465 15.0833C23.7466 15.0704 23.7517 15.0581 23.7608 15.0491C23.7699 15.04 23.7822 15.035 23.795 15.035H24.0115C24.023 15.0349 24.0343 15.039 24.0431 15.0465C24.0519 15.054 24.0577 15.0644 24.0596 15.0759C24.092 15.2963 24.1897 15.4075 24.6329 15.4075C24.9854 15.4075 25.1356 15.3277 25.1356 15.1404C25.1356 15.0324 25.0929 14.9525 24.5449 14.8987C24.0868 14.8533 23.8035 14.7523 23.8035 14.3855C23.8035 14.0478 24.0882 13.8461 24.5654 13.8461C25.1018 13.8461 25.3672 14.0324 25.4007 14.4319C25.4012 14.4386 25.4004 14.4454 25.3982 14.4517C25.396 14.4581 25.3926 14.464 25.388 14.469C25.3835 14.4738 25.378 14.4776 25.3719 14.4803C25.3658 14.4829 25.3592 14.4843 25.3526 14.4844H25.1351C25.1242 14.4844 25.1135 14.4807 25.105 14.4738C25.0964 14.4669 25.0904 14.4574 25.0881 14.4466C25.0358 14.2146 24.9092 14.1406 24.5652 14.1406C24.1802 14.1406 24.1355 14.2749 24.1355 14.3751C24.1355 14.4969 24.1882 14.5323 24.7082 14.6011C25.2227 14.6692 25.4671 14.7654 25.4671 15.1271C25.4674 15.4927 25.1632 15.7017 24.6329 15.7017ZM20.6681 14.4344C20.7341 14.3958 20.7748 14.3254 20.7748 14.2488V13.7522C20.7748 13.6759 20.7343 13.6054 20.6681 13.5668L18.9038 12.5425C18.8712 12.5235 18.8341 12.5135 18.7964 12.5134C18.7587 12.5134 18.7216 12.5232 18.6889 12.5421L16.9136 13.567C16.8811 13.5859 16.854 13.6129 16.8352 13.6455C16.8164 13.6781 16.8065 13.715 16.8065 13.7527V15.8021C16.8065 15.8791 16.8478 15.9504 16.9149 15.9886L18.679 16.9937C18.7439 17.0311 18.8237 17.0313 18.8893 16.995L19.9562 16.4018C19.9728 16.3926 19.9867 16.3791 19.9964 16.3628C20.006 16.3465 20.0112 16.3279 20.0114 16.3089C20.0115 16.2899 20.0066 16.2712 19.9971 16.2547C19.9876 16.2382 19.9739 16.2246 19.9575 16.2151L18.1712 15.19C18.1549 15.1807 18.1412 15.1672 18.1317 15.1509C18.1223 15.1346 18.1173 15.116 18.1172 15.0972V14.4547C18.1172 14.4163 18.1377 14.381 18.1708 14.3621L18.7271 14.0414C18.7433 14.032 18.7617 14.027 18.7805 14.027C18.7993 14.027 18.8178 14.032 18.834 14.0414L19.3902 14.3621C19.4066 14.3714 19.4201 14.3849 19.4296 14.4011C19.439 14.4174 19.444 14.4359 19.444 14.4547V14.9601C19.4439 14.979 19.4488 14.9976 19.4582 15.0139C19.4676 15.0303 19.4812 15.0439 19.4976 15.0534C19.514 15.0628 19.5326 15.0677 19.5515 15.0676C19.5704 15.0676 19.5889 15.0625 19.6052 15.0529L20.6681 14.4344ZM18.7701 14.3382C18.7764 14.3347 18.7835 14.3329 18.7907 14.3329C18.7979 14.3329 18.8049 14.3347 18.8112 14.3382L19.1519 14.535C19.1645 14.5424 19.1723 14.5561 19.1723 14.5707V14.9641C19.1723 14.9788 19.1645 14.9923 19.1519 14.9997L18.8112 15.1963C18.805 15.1999 18.7979 15.2019 18.7907 15.2019C18.7834 15.2019 18.7763 15.1999 18.7701 15.1963L18.4296 14.9997C18.4233 14.9961 18.4181 14.991 18.4145 14.9847C18.4109 14.9784 18.4089 14.9713 18.409 14.9641V14.5707C18.409 14.5561 18.4168 14.5424 18.4296 14.535L18.7701 14.3382ZM14.1503 15.1567C14.1503 15.1756 14.1402 15.1934 14.1236 15.2031L13.5139 15.5545C13.5058 15.5593 13.4966 15.5618 13.4872 15.5618C13.4777 15.5618 13.4685 15.5593 13.4604 15.5545L12.8508 15.2031C12.8426 15.1983 12.8359 15.1916 12.8312 15.1834C12.8265 15.1753 12.824 15.1661 12.824 15.1567V14.4526C12.824 14.4336 12.8343 14.4156 12.8508 14.4059L13.4604 14.0541C13.4685 14.0492 13.4778 14.0466 13.4873 14.0466C13.4967 14.0466 13.506 14.0492 13.5142 14.0541L14.124 14.4059C14.1321 14.4107 14.1388 14.4176 14.1434 14.4257C14.1481 14.4339 14.1505 14.4431 14.1506 14.4526V15.1567H14.1503ZM14.3151 9.94313C14.2987 9.9342 14.2804 9.92966 14.2617 9.92994C14.2431 9.93023 14.2249 9.93534 14.2088 9.94478C14.1928 9.95421 14.1794 9.96764 14.1701 9.98377C14.1608 9.99989 14.1558 10.0182 14.1556 10.0368V12.761C14.1556 12.7742 14.1521 12.7871 14.1456 12.7985C14.139 12.8099 14.1296 12.8194 14.1183 12.826C14.1068 12.8325 14.0939 12.836 14.0807 12.836C14.0676 12.836 14.0546 12.8325 14.0432 12.826L13.5985 12.5697C13.566 12.551 13.5291 12.5411 13.4915 12.5411C13.4539 12.5411 13.417 12.551 13.3844 12.5697L11.6088 13.5945C11.5761 13.6133 11.549 13.6404 11.5302 13.673C11.5113 13.7056 11.5014 13.7426 11.5014 13.7803V15.8304C11.5014 15.907 11.5423 15.9776 11.6086 16.0162L13.3842 17.0416C13.4505 17.08 13.5323 17.08 13.5987 17.0416L15.3748 16.0162C15.4074 15.9973 15.4344 15.9702 15.4532 15.9376C15.472 15.905 15.482 15.868 15.482 15.8304V10.72C15.482 10.6424 15.4398 10.5707 15.3721 10.5327L14.3151 9.94313ZM8.06586 12.5311C8.09842 12.5123 8.13538 12.5023 8.17301 12.5023C8.21064 12.5023 8.2476 12.5123 8.28017 12.5311L10.0558 13.5556C10.1221 13.594 10.163 13.6649 10.163 13.7415V15.7922C10.163 15.8688 10.1221 15.9397 10.0558 15.9781L8.28038 17.0034C8.24775 17.0222 8.21076 17.0321 8.17312 17.0321C8.13547 17.0321 8.09849 17.0222 8.06586 17.0034L6.29082 15.9781C6.25826 15.9592 6.23123 15.9321 6.21243 15.8994C6.19362 15.8668 6.1837 15.8299 6.18366 15.7922V13.7413C6.18366 13.6649 6.22458 13.594 6.29082 13.5556L8.06586 12.5311ZM4.83682 13.7244C4.83682 13.6472 4.79632 13.5763 4.72967 13.5381L2.95463 12.5166C2.92482 12.4993 2.89119 12.4896 2.85675 12.4885H2.8384C2.80397 12.4897 2.77035 12.4993 2.74053 12.5166L0.965277 13.5381C0.932619 13.557 0.905508 13.5842 0.886663 13.6169C0.867817 13.6496 0.857902 13.6867 0.85791 13.7244L0.861707 16.475C0.861707 16.5134 0.881746 16.5491 0.915285 16.5676C0.931345 16.5774 0.949766 16.5825 0.968547 16.5825C0.987328 16.5825 1.00575 16.5774 1.02181 16.5676L2.0765 15.9635C2.14315 15.9238 2.18386 15.854 2.18386 15.7775V14.4924C2.18386 14.4156 2.22436 14.345 2.29081 14.3066L2.74011 14.048C2.77258 14.0289 2.8096 14.0189 2.84726 14.0191C2.88397 14.0191 2.92151 14.0284 2.95421 14.048L3.40308 14.3066C3.46953 14.345 3.51045 14.4156 3.51045 14.4924V15.7775C3.51045 15.854 3.55158 15.9243 3.61782 15.9635L4.6725 16.5676C4.68877 16.5769 4.70718 16.5818 4.72592 16.5817C4.74465 16.5817 4.76304 16.5767 4.77926 16.5674C4.79548 16.558 4.80896 16.5445 4.81836 16.5283C4.82775 16.5121 4.83274 16.4938 4.83282 16.475L4.83682 13.7244Z" fill="white"/>
</svg>
