<svg width="28" height="28" viewBox="0 0 28 28" fill="none" xmlns="http://www.w3.org/2000/svg">
<path d="M24.3352 14.3596C26.2765 15.4973 27.5811 17.5995 27.5852 20.0064C27.5921 23.6296 24.6493 26.5721 21.0136 26.578C17.3779 26.5849 14.4251 23.6523 14.4184 20.0291C14.4141 17.6221 15.7111 15.5159 17.6489 14.3704L19.5406 17.5566C19.5879 17.6363 19.5609 17.7392 19.4841 17.7916C18.7684 18.2767 18.2992 19.0951 18.3009 20.0224C18.3035 21.509 19.5154 22.7124 21.0067 22.709C22.4985 22.7064 23.7052 21.4995 23.7026 20.0131C23.7011 19.086 23.2294 18.2689 22.5118 17.7864C22.4353 17.7342 22.4075 17.6314 22.4545 17.5514L24.3352 14.3596ZM9.80493 14.3208C8.82258 13.7725 7.71597 13.4854 6.59096 13.4871C2.95441 13.4871 0.00756836 16.4246 0.00756836 20.0478C0.00756836 23.6708 2.95441 26.6086 6.59096 26.6086C10.2445 26.6086 13.2638 23.5175 13.172 19.8792H9.46622C9.36856 19.8792 9.29202 19.9618 9.29115 20.0586C9.28188 21.5081 8.06826 22.7394 6.59096 22.7394C5.09857 22.7394 3.89012 21.5342 3.89012 20.0476C3.89012 18.5613 5.09857 17.356 6.59096 17.356C6.98098 17.356 7.35247 17.4386 7.68751 17.5876C7.77009 17.6238 7.86775 17.5962 7.91325 17.5195L9.80493 14.3208ZM10.337 13.2915C8.39835 12.1503 7.09719 10.0459 7.09719 7.63888C7.09719 4.0157 10.0449 1.07812 13.6806 1.07812C17.3163 1.07812 20.264 4.0157 20.264 7.63888C20.264 10.0459 18.9628 12.1503 17.0241 13.2915L15.1374 10.1032C15.0902 10.0234 15.1171 9.92059 15.1948 9.8682C15.9106 9.38396 16.3812 8.56618 16.3812 7.63888C16.3812 6.15252 15.1719 4.94731 13.6804 4.94731C12.1888 4.94731 10.9795 6.15252 10.9795 7.6391C10.9795 8.56618 11.4502 9.38396 12.1662 9.86841C12.2438 9.92059 12.2706 10.0232 12.2233 10.1034L10.337 13.2915Z" fill="white"/>
</svg>
