<svg width="27" height="28" viewBox="0 0 27 28" fill="none" xmlns="http://www.w3.org/2000/svg">
<path d="M10.7894 13.549H17.0761C18.8261 13.549 20.2047 12.0682 20.2047 10.3108V4.31755C20.2047 2.61172 18.7748 1.33018 17.0666 1.04559C15.9856 0.865559 14.8686 0.78363 13.7923 0.788804C12.7164 0.793763 11.7199 0.885394 10.8159 1.04559C8.15215 1.51581 7.69982 2.50111 7.69982 4.31755V6.64972H13.9523V7.51212H5.2799C3.45074 7.51212 1.84882 8.61342 1.34798 10.7054C0.769952 13.1029 0.744295 14.5688 1.34798 17.0721C1.79535 18.9353 2.86366 20.2326 4.69304 20.2326H6.83741V17.4194C6.83741 15.3417 8.6545 13.549 10.7894 13.549ZM10.3931 5.11679C9.7407 5.11679 9.21205 4.58231 9.21205 3.92128C9.21205 3.25744 9.74049 2.71801 10.3931 2.71801C11.0431 2.71801 11.5744 3.25744 11.5744 3.92128C11.5742 4.58231 11.0429 5.11679 10.3931 5.11679ZM26.5177 10.7054C26.0654 8.884 25.2019 7.51212 23.3702 7.51212H21.0671V10.3108C21.0671 12.4776 19.1711 14.1958 17.0761 14.1958H10.7894C9.06716 14.1958 7.69982 15.7753 7.69982 17.5001V23.4938C7.69982 25.1992 9.15405 26.2026 10.8178 26.692C12.8104 27.2778 14.6974 27.3837 17.0813 26.692C18.6657 26.233 20.2047 25.3098 20.2047 23.4938V21.095H13.9523V20.2326H23.3702C25.1993 20.2326 25.8813 18.9873 26.5177 17.0719C27.1747 15.1002 27.1464 13.2344 26.5177 10.7054ZM17.4722 22.6941C18.1248 22.6941 18.6535 23.2286 18.6535 23.8901C18.6535 24.5533 18.125 25.0929 17.4722 25.0929C16.8221 25.0929 16.2911 24.5535 16.2911 23.8901C16.2911 23.2286 16.8221 22.6941 17.4722 22.6941Z" fill="white"/>
</svg>
