<svg width="27" height="27" viewBox="0 0 27 27" fill="none" xmlns="http://www.w3.org/2000/svg">
<path d="M20.8444 8.53919V17.6023L13.1362 22.1708L13.0667 22.2342V25.6257L13.1362 25.6912L23.9842 19.4199V6.77896L23.8819 6.75439L20.8117 8.46551L20.8281 8.53919" fill="#606060"/>
<path d="M5.40362 17.6842L13.1364 22.1707V25.6912L2.20654 19.3953V6.80348L2.31912 6.78711L5.37087 8.56167L5.40362 8.66401V17.6842Z" fill="#B1B1B1"/>
<path d="M5.40362 8.66195L2.20654 6.80347L13.1118 0.507568L23.9925 6.77891L20.8446 8.53915L13.1118 4.12628L5.40362 8.66195Z" fill="white"/>
<path d="M13.0031 16.6466L12.9192 16.5606V13.1548L13.0031 13.1118L13.0236 13.0279L15.9443 11.325L16.0344 11.3454V14.8557L13.0052 16.6486" fill="#606060"/>
<path d="M9.92285 14.9639V11.3186H10.0068L12.9767 13.0481L13.0012 13.1157V16.6464L9.92285 14.9639Z" fill="#B1B1B1"/>
<path d="M12.9541 9.52563L9.92285 11.3186L13.0033 13.1116L16.0325 11.3432L12.9541 9.52563Z" fill="white"/>
<path d="M9.23309 18.8692L9.14917 18.7833V15.3774L9.23309 15.3344L9.25356 15.2505L12.1743 13.5476L12.2644 13.5681V17.0763L9.23513 18.8692" fill="#606060"/>
<path d="M6.15259 17.193V13.5415H6.23651L9.21048 15.2669L9.23504 15.3345V18.8693L6.15259 17.193Z" fill="#B1B1B1"/>
<path d="M9.18183 11.7485L6.15259 13.5415L9.233 15.3345L12.2622 13.5661L9.18183 11.7485Z" fill="white"/>
<path d="M17.0436 18.9532L16.9597 18.8673V15.4614L17.0436 15.4184L17.0641 15.3345L19.9849 13.6316L20.0749 13.6521V17.1602L17.0436 18.9532Z" fill="#606060"/>
<path d="M13.9631 17.2708V13.6255H14.0471L17.019 15.3509L17.0435 15.4185V18.9533L13.9631 17.2708Z" fill="#B1B1B1"/>
<path d="M16.9882 11.8325L13.959 13.6255L17.0394 15.4185L20.0686 13.6501L16.9882 11.8325Z" fill="white"/>
<path d="M13.2734 21.1761L13.1895 21.0902V17.6843L13.2734 17.6413L13.2938 17.5574L16.2146 15.8545L16.3047 15.875V19.3831L13.2754 21.1761" fill="#606060"/>
<path d="M10.1929 19.4914V15.8481H10.2768L13.2467 17.5777L13.2712 17.6452V21.18L10.1929 19.4914Z" fill="#B1B1B1"/>
<path d="M13.2221 14.0552L10.1929 15.8482L13.2733 17.6411L16.3025 15.8727L13.2221 14.0552Z" fill="white"/>
<path d="M13.0031 11.8161L12.9192 11.7302V8.3243L13.0031 8.28132L13.0236 8.1974L15.9443 6.49243L16.0344 6.5129V10.0293L13.0052 11.8223" fill="#606060"/>
<path d="M9.92285 10.1316V6.48828H10.0068L12.9767 8.21781L13.0012 8.28536V11.8161L9.92285 10.1316Z" fill="#B1B1B1"/>
<path d="M12.9541 4.69531L9.92285 6.4883L13.0033 8.28128L16.0325 6.51286L12.9541 4.69531Z" fill="white"/>
<path d="M9.23309 14.0389L9.14917 13.953V10.5471L9.23309 10.5041L9.25356 10.4202L12.1743 8.71729L12.2644 8.73775V12.2459L9.23513 14.0389" fill="#606060"/>
<path d="M6.15259 12.3543V8.70898H6.23651L9.21048 10.4385L9.23504 10.5061V14.0388L6.15259 12.3543Z" fill="#B1B1B1"/>
<path d="M9.18183 6.91821L6.15259 8.7112L9.233 10.5042L12.2622 8.73576L9.18183 6.91821Z" fill="white"/>
<path d="M17.0436 14.1229L16.9597 14.0369V10.6311L17.0436 10.5881L17.0641 10.5042L19.9849 8.80127L20.0749 8.82174V12.3299L17.0436 14.1229Z" fill="#606060"/>
<path d="M13.9631 12.4384V8.80127H14.0471L17.0169 10.5308L17.0415 10.5983V14.1229L13.9631 12.4384Z" fill="#B1B1B1"/>
<path d="M16.9883 7.00195L13.9631 8.80108L17.0435 10.5941L20.0728 8.82564L16.9883 7.00195Z" fill="white"/>
<path d="M13.2734 16.3436L13.1895 16.2576V12.8518L13.2734 12.8088L13.2938 12.7249L16.2146 11.022L16.3047 11.0424V14.5506L13.2754 16.3436" fill="#606060"/>
<path d="M10.1929 14.6612V11.0159H10.2768L13.2467 12.7454L13.2712 12.8129V16.3436L10.1929 14.6612Z" fill="#B1B1B1"/>
<path d="M13.2221 9.2229L10.1929 11.0159L13.2733 12.8089L16.3025 11.0404L13.2221 9.2229Z" fill="white"/>
</svg>
