<svg width="26" height="16" viewBox="0 0 26 16" fill="none" xmlns="http://www.w3.org/2000/svg">
<path d="M13 0C9.53326 0 7.36734 1.73275 6.5 5.19966C7.79959 3.46671 9.31673 2.81688 11.0496 3.25017C12.039 3.49678 12.7461 4.21425 13.5291 5.00932C14.8035 6.30269 16.2786 7.8 19.5 7.8C22.9665 7.8 25.1327 6.06705 26 2.59932C24.7002 4.33329 23.1833 4.98312 21.4502 4.54983C20.461 4.30302 19.7547 3.58575 18.9707 2.79068C17.6971 1.49731 16.2224 0 13 0V0ZM6.5 7.8C3.03347 7.8 0.867344 9.53295 0 13.0007C1.29959 11.2667 2.81653 10.6169 4.54959 11.0502C5.53902 11.297 6.24609 12.0143 7.02914 12.8093C8.30355 14.1027 9.77864 15.6 13 15.6C16.4665 15.6 18.6327 13.8673 19.5 10.4003C18.2002 12.1333 16.6833 12.7831 14.9502 12.3498C13.961 12.1032 13.2547 11.3857 12.4707 10.5907C11.1971 9.29731 9.72238 7.8 6.5 7.8Z" fill="white"/>
</svg>
