<svg width="26" height="26" viewBox="0 0 26 26" fill="none" xmlns="http://www.w3.org/2000/svg">
<path d="M0.40625 12.9817V25.677H25.7969V0.286377H0.40625V12.9817ZM20.867 11.9661C21.4752 12.1072 22.0279 12.4253 22.4555 12.8801C22.6909 13.1252 22.8955 13.398 23.0648 13.6926C23.0648 13.7251 21.968 14.4665 21.2997 14.8809C21.2753 14.8972 21.1778 14.7915 21.0702 14.6311C20.9482 14.4206 20.7748 14.2444 20.5663 14.119C20.3578 13.9936 20.1209 13.9231 19.8778 13.914C19.108 13.8612 18.6123 14.2654 18.6164 14.9297C18.61 15.095 18.6479 15.2591 18.7261 15.405C18.8947 15.7564 19.2095 15.9656 20.1967 16.3922C22.0147 17.1742 22.7927 17.6901 23.2761 18.4234C23.8164 19.2359 23.9363 20.5481 23.5706 21.519C23.1644 22.5753 22.1691 23.2923 20.7614 23.53C20.1185 23.6036 19.4689 23.5968 18.8277 23.5097C17.849 23.3509 16.9463 22.8849 16.25 22.1792C16.0164 21.9212 15.5614 21.2489 15.5898 21.2001C15.664 21.1451 15.7421 21.0955 15.8234 21.0518L16.7578 20.5156L17.487 20.0931L17.6394 20.3186C17.8965 20.6863 18.2237 20.9997 18.6022 21.2408C19.4147 21.6673 20.5238 21.6084 21.0722 21.1148C21.2563 20.9339 21.3712 20.6942 21.3968 20.4374C21.4224 20.1805 21.3571 19.9229 21.2123 19.7092C21.0092 19.4268 20.603 19.1892 19.4675 18.6936C18.1573 18.1289 17.5927 17.7795 17.0767 17.2229C16.7546 16.8557 16.5168 16.4224 16.38 15.9534C16.2779 15.4177 16.2628 14.869 16.3353 14.3284C16.6055 13.0629 17.5541 12.1793 18.9394 11.9173C19.5809 11.8379 20.2308 11.8557 20.867 11.9701V11.9661ZM14.9073 13.0304V14.0704H11.6106V23.4609H9.27266V14.0684H5.96781V13.0528C5.95894 12.7032 5.96843 12.3533 5.99625 12.0047C6.00844 11.9884 8.0275 11.9803 10.465 11.9843H14.8952L14.9073 13.0304Z" fill="white"/>
</svg>
