<svg width="22" height="295" viewBox="0 0 22 295" fill="none" xmlns="http://www.w3.org/2000/svg">
<path d="M10.9523 295C10.6352 284.105 10.376 283.835 0 283.5C10.376 283.167 10.6337 282.895 10.9523 272C11.2694 282.895 11.5287 283.165 21.9047 283.5C11.5287 283.835 11.2711 284.102 10.9523 295Z" fill="url(#paint0_linear_328_542)"/>
<path d="M11 209.5C11 209.224 11.2239 209 11.5 209C11.7761 209 12 209.224 12 209.5V268.5C12 268.776 11.7761 269 11.5 269C11.2239 269 11 268.776 11 268.5V209.5Z" fill="url(#paint1_linear_328_542)"/>
<path d="M10.9523 206C10.6352 195.105 10.376 194.835 0 194.5C10.376 194.167 10.6337 193.895 10.9523 183C11.2694 193.895 11.5287 194.165 21.9047 194.5C11.5287 194.835 11.2711 195.102 10.9523 206Z" fill="url(#paint2_linear_328_542)"/>
<path d="M11 120.5C11 120.224 11.2239 120 11.5 120C11.7761 120 12 120.224 12 120.5V179.5C12 179.776 11.7761 180 11.5 180C11.2239 180 11 179.776 11 179.5V120.5Z" fill="url(#paint3_linear_328_542)"/>
<path d="M10.9523 117C10.6352 106.105 10.376 105.835 0 105.5C10.376 105.167 10.6337 104.895 10.9523 94C11.2694 104.895 11.5287 105.165 21.9047 105.5C11.5287 105.835 11.2711 106.102 10.9523 117Z" fill="url(#paint4_linear_328_542)"/>
<path d="M11 26.5C11 26.2239 11.2239 26 11.5 26C11.7761 26 12 26.2239 12 26.5V90.5C12 90.7761 11.7761 91 11.5 91C11.2239 91 11 90.7761 11 90.5V26.5Z" fill="url(#paint5_linear_328_542)"/>
<path d="M10.9523 23C10.6352 12.1051 10.376 11.8346 0 11.5C10.376 11.167 10.6337 10.8949 10.9523 0C11.2694 10.8949 11.5287 11.1654 21.9047 11.5C11.5287 11.8346 11.2711 12.1018 10.9523 23Z" fill="url(#paint6_linear_328_542)"/>
<defs>
<linearGradient id="paint0_linear_328_542" x1="10.9523" y1="0" x2="10.9523" y2="295" gradientUnits="userSpaceOnUse">
<stop stop-color="#41BAE0"/>
<stop offset="0.317708" stop-color="#2703B8"/>
<stop offset="0.645833" stop-color="#751E9E"/>
<stop offset="1" stop-color="#6CDBEA"/>
</linearGradient>
<linearGradient id="paint1_linear_328_542" x1="10.9523" y1="0" x2="10.9523" y2="295" gradientUnits="userSpaceOnUse">
<stop stop-color="#41BAE0"/>
<stop offset="0.317708" stop-color="#2703B8"/>
<stop offset="0.645833" stop-color="#751E9E"/>
<stop offset="1" stop-color="#6CDBEA"/>
</linearGradient>
<linearGradient id="paint2_linear_328_542" x1="10.9523" y1="0" x2="10.9523" y2="295" gradientUnits="userSpaceOnUse">
<stop stop-color="#41BAE0"/>
<stop offset="0.317708" stop-color="#2703B8"/>
<stop offset="0.645833" stop-color="#751E9E"/>
<stop offset="1" stop-color="#6CDBEA"/>
</linearGradient>
<linearGradient id="paint3_linear_328_542" x1="10.9523" y1="0" x2="10.9523" y2="295" gradientUnits="userSpaceOnUse">
<stop stop-color="#41BAE0"/>
<stop offset="0.317708" stop-color="#2703B8"/>
<stop offset="0.645833" stop-color="#751E9E"/>
<stop offset="1" stop-color="#6CDBEA"/>
</linearGradient>
<linearGradient id="paint4_linear_328_542" x1="10.9523" y1="0" x2="10.9523" y2="295" gradientUnits="userSpaceOnUse">
<stop stop-color="#41BAE0"/>
<stop offset="0.317708" stop-color="#2703B8"/>
<stop offset="0.645833" stop-color="#751E9E"/>
<stop offset="1" stop-color="#6CDBEA"/>
</linearGradient>
<linearGradient id="paint5_linear_328_542" x1="10.9523" y1="0" x2="10.9523" y2="295" gradientUnits="userSpaceOnUse">
<stop stop-color="#41BAE0"/>
<stop offset="0.317708" stop-color="#2703B8"/>
<stop offset="0.645833" stop-color="#751E9E"/>
<stop offset="1" stop-color="#6CDBEA"/>
</linearGradient>
<linearGradient id="paint6_linear_328_542" x1="10.9523" y1="0" x2="10.9523" y2="295" gradientUnits="userSpaceOnUse">
<stop stop-color="#41BAE0"/>
<stop offset="0.317708" stop-color="#2703B8"/>
<stop offset="0.645833" stop-color="#751E9E"/>
<stop offset="1" stop-color="#6CDBEA"/>
</linearGradient>
</defs>
</svg>
