<svg width="45" height="45" viewBox="0 0 45 45" fill="none" xmlns="http://www.w3.org/2000/svg">
<path d="M39.375 8.10662V36.8934C39.375 37.5515 39.1135 38.1828 38.6482 38.6482C38.1828 39.1135 37.5515 39.375 36.8934 39.375H8.10662C7.44845 39.375 6.81724 39.1135 6.35185 38.6482C5.88646 38.1828 5.625 37.5515 5.625 36.8934V8.10662C5.625 7.44845 5.88646 6.81724 6.35185 6.35185C6.81724 5.88646 7.44845 5.625 8.10662 5.625H36.8934C37.5515 5.625 38.1828 5.88646 38.6482 6.35185C39.1135 6.81724 39.375 7.44845 39.375 8.10662V8.10662ZM15.5515 18.5294H10.5882V34.4118H15.5515V18.5294ZM15.9982 13.0699C16.0008 12.6944 15.9294 12.3222 15.7882 11.9743C15.6469 11.6265 15.4385 11.3098 15.1749 11.0425C14.9113 10.7752 14.5976 10.5624 14.2517 10.4164C13.9059 10.2703 13.5346 10.1938 13.1592 10.1912H13.0699C12.3064 10.1912 11.5742 10.4945 11.0343 11.0343C10.4945 11.5742 10.1912 12.3064 10.1912 13.0699C10.1912 13.8333 10.4945 14.5655 11.0343 15.1054C11.5742 15.6452 12.3064 15.9485 13.0699 15.9485V15.9485C13.4453 15.9578 13.8189 15.8929 14.1693 15.7577C14.5197 15.6225 14.84 15.4196 15.1119 15.1606C15.3839 14.9016 15.6021 14.5915 15.7542 14.2481C15.9062 13.9047 15.9891 13.5347 15.9982 13.1592V13.0699ZM34.4118 24.7632C34.4118 19.9886 31.3743 18.1324 28.3566 18.1324C27.3686 18.0829 26.3848 18.2933 25.5035 18.7427C24.6222 19.1921 23.8741 19.8647 23.3338 20.6934H23.1949V18.5294H18.5294V34.4118H23.4926V25.9643C23.4209 25.0992 23.6934 24.2407 24.251 23.5753C24.8086 22.9099 25.6062 22.4914 26.4706 22.4107H26.6592C28.2375 22.4107 29.4088 23.4033 29.4088 25.9048V34.4118H34.3721L34.4118 24.7632Z" fill="white"/>
</svg>
