<svg width="624" height="643" viewBox="0 0 624 643" fill="none" xmlns="http://www.w3.org/2000/svg">
<circle cx="306.514" cy="306.514" r="236.022" transform="rotate(-18.8167 306.514 306.514)" stroke="#090C1F" stroke-width="11"/>
<circle cx="306.837" cy="305.858" r="216.749" transform="rotate(-18.8167 306.837 305.858)" stroke="#090C1F" stroke-width="3"/>
<circle cx="306.515" cy="306.515" r="195.751" transform="rotate(-18.8167 306.515 306.515)" stroke="#090C1F" stroke-width="15"/>
<circle cx="306.837" cy="305.858" r="180.046" transform="rotate(-18.8167 306.837 305.858)" stroke="#090C1F" stroke-width="4"/>
<circle cx="306.515" cy="306.515" r="134.155" transform="rotate(-18.8167 306.515 306.515)" stroke="#090C1F" stroke-width="12"/>
<circle cx="306.837" cy="305.858" r="104.504" transform="rotate(-18.8167 306.837 305.858)" stroke="#090C1F" stroke-width="2"/>
<circle cx="306.838" cy="305.858" r="112.882" transform="rotate(-18.8167 306.838 305.858)" stroke="#090C1F" stroke-width="8"/>
<g style="mix-blend-mode:difference">
<mask id="mask0_648_3932" style="mask-type:alpha" maskUnits="userSpaceOnUse" x="322" y="293" width="263" height="228">
<rect x="381.634" y="293.484" width="246.711" height="104.47" transform="rotate(34.795 381.634 293.484)" fill="white"/>
</mask>
<g mask="url(#mask0_648_3932)">
<circle cx="306.514" cy="306.515" r="236.022" transform="rotate(-18.8167 306.514 306.515)" stroke="#090C1F" stroke-width="11"/>
<circle cx="306.837" cy="305.858" r="216.749" transform="rotate(-18.8167 306.837 305.858)" stroke="#090C1F" stroke-width="3"/>
<circle cx="306.515" cy="306.515" r="195.751" transform="rotate(-18.8167 306.515 306.515)" stroke="#090C1F" stroke-width="15"/>
<circle cx="306.837" cy="305.858" r="180.046" transform="rotate(-18.8167 306.837 305.858)" stroke="#090C1F" stroke-width="4"/>
<circle cx="306.515" cy="306.515" r="134.155" transform="rotate(-18.8167 306.515 306.515)" stroke="#090C1F" stroke-width="12"/>
<circle cx="306.837" cy="305.858" r="104.504" transform="rotate(-18.8167 306.837 305.858)" stroke="#090C1F" stroke-width="2"/>
<circle cx="306.838" cy="305.859" r="112.882" transform="rotate(-18.8167 306.838 305.859)" stroke="#090C1F" stroke-width="8"/>
</g>
</g>
<circle cx="306.514" cy="306.514" r="52.2349" transform="rotate(-18.8167 306.514 306.514)" fill="#BAA764"/>
<g style="mix-blend-mode:multiply" filter="url(#filter0_d_648_3932)">
<mask id="mask1_648_3932" style="mask-type:alpha" maskUnits="userSpaceOnUse" x="271" y="236" width="105" height="158">
<g style="mix-blend-mode:darken">
<path d="M271.638 374.129C305.864 373.567 375.071 330.978 352.526 241.115" stroke="#707070" stroke-width="38"/>
</g>
</mask>
<g mask="url(#mask1_648_3932)">
<g filter="url(#filter1_d_648_3932)">
<circle cx="306.514" cy="306.514" r="52.2349" transform="rotate(-18.8167 306.514 306.514)" fill="#BA6464"/>
</g>
</g>
</g>
<defs>
<filter id="filter0_d_648_3932" x="267.326" y="254.265" width="95.4365" height="112.498" filterUnits="userSpaceOnUse" color-interpolation-filters="sRGB">
<feFlood flood-opacity="0" result="BackgroundImageFix"/>
<feColorMatrix in="SourceAlpha" type="matrix" values="0 0 0 0 0 0 0 0 0 0 0 0 0 0 0 0 0 0 127 0" result="hardAlpha"/>
<feOffset dy="4"/>
<feGaussianBlur stdDeviation="2"/>
<feComposite in2="hardAlpha" operator="out"/>
<feColorMatrix type="matrix" values="0 0 0 0 0 0 0 0 0 0 0 0 0 0 0 0 0 0 0.25 0"/>
<feBlend mode="normal" in2="BackgroundImageFix" result="effect1_dropShadow_648_3932"/>
<feBlend mode="normal" in="SourceGraphic" in2="effect1_dropShadow_648_3932" result="shape"/>
</filter>
<filter id="filter1_d_648_3932" x="250.265" y="254.265" width="112.498" height="112.498" filterUnits="userSpaceOnUse" color-interpolation-filters="sRGB">
<feFlood flood-opacity="0" result="BackgroundImageFix"/>
<feColorMatrix in="SourceAlpha" type="matrix" values="0 0 0 0 0 0 0 0 0 0 0 0 0 0 0 0 0 0 127 0" result="hardAlpha"/>
<feOffset dy="4"/>
<feGaussianBlur stdDeviation="2"/>
<feComposite in2="hardAlpha" operator="out"/>
<feColorMatrix type="matrix" values="0 0 0 0 0 0 0 0 0 0 0 0 0 0 0 0 0 0 0.25 0"/>
<feBlend mode="normal" in2="BackgroundImageFix" result="effect1_dropShadow_648_3932"/>
<feBlend mode="normal" in="SourceGraphic" in2="effect1_dropShadow_648_3932" result="shape"/>
</filter>
</defs>
</svg>
