<svg width="212" height="168" viewBox="0 0 212 168" fill="none" xmlns="http://www.w3.org/2000/svg">
<circle cx="105.504" cy="83.5923" r="67.5" fill="#D9D9D9"/>
<ellipse cx="105.944" cy="83.8436" rx="115.375" ry="20.6909" transform="rotate(-35.5 105.944 83.8436)" fill="#D9D9D9"/>
<path d="M186.126 26.4152L186.126 26.4156C186.132 26.4234 186.189 26.501 186.202 26.7527C186.218 27.0306 186.176 27.4708 185.988 28.1078C185.607 29.3999 184.737 31.1395 183.28 33.3218C180.381 37.6621 175.509 43.2422 168.962 49.7007C155.896 62.5893 136.491 78.6529 113.845 94.8061C91.1994 110.959 69.6933 124.077 53.2531 132.235C45.0151 136.323 38.1528 139.112 33.1052 140.44C30.5674 141.108 28.6391 141.364 27.2935 141.304C26.63 141.274 26.2003 141.17 25.9424 141.065C25.7089 140.97 25.6541 140.891 25.6485 140.883L25.6482 140.883L25.6479 140.882C25.6421 140.875 25.5856 140.797 25.5718 140.545C25.5565 140.267 25.5983 139.827 25.786 139.19C26.1667 137.898 27.0371 136.158 28.4946 133.976C31.3934 129.636 36.2652 124.056 42.8122 117.597C55.8777 104.709 75.2829 88.6451 97.9288 72.4919C120.575 56.3388 142.081 43.2206 158.521 35.0631C166.759 30.9754 173.621 28.1857 178.669 26.8579C181.207 26.1903 183.135 25.9337 184.481 25.9944C185.144 26.0243 185.574 26.1281 185.832 26.233C186.065 26.3281 186.12 26.4067 186.126 26.4147L186.126 26.4152Z" stroke="black" stroke-width="5"/>
<circle cx="106.004" cy="84.0923" r="51.5" stroke="black" stroke-width="5"/>
<circle cx="106.004" cy="84.0923" r="49" fill="#D9D9D9"/>
<circle cx="83.0741" cy="78.7592" r="6.5" transform="rotate(-5.27947 83.0741 78.7592)" fill="black"/>
<circle cx="110.387" cy="59.1628" r="6.5" transform="rotate(-5.27947 110.387 59.1628)" fill="black"/>
<path d="M112.043 73.8478C111.624 78.79 107.888 88.0861 96.3007 85.7329" stroke="black" stroke-width="4" stroke-linecap="round"/>
<path d="M68.5035 124.092C106.504 105.092 126.004 93.0923 154.004 63.5923" stroke="black" stroke-width="5" stroke-linecap="round"/>
</svg>
