<svg width="45" height="45" viewBox="0 0 45 45" fill="none" xmlns="http://www.w3.org/2000/svg">
<path fill-rule="evenodd" clip-rule="evenodd" d="M22.5 4.21255C12.1406 4.21255 3.75 12.6032 3.75 22.9625C3.75 31.2594 9.11719 38.2672 16.5703 40.7516C17.5078 40.9157 17.8594 40.3532 17.8594 39.861C17.8594 39.4157 17.8359 37.9391 17.8359 36.3688C13.125 37.236 11.9062 35.2204 11.5312 34.1657C11.3203 33.6266 10.4062 31.9625 9.60938 31.5172C8.95312 31.1657 8.01562 30.2985 9.58594 30.275C11.0625 30.2516 12.1172 31.6344 12.4688 32.1969C14.1562 35.0329 16.8516 34.236 17.9297 33.7438C18.0938 32.525 18.5859 31.7047 19.125 31.236C14.9531 30.7672 10.5938 29.15 10.5938 21.9782C10.5938 19.9391 11.3203 18.2516 12.5156 16.9391C12.3281 16.4704 11.6719 14.5485 12.7031 11.9704C12.7031 11.9704 14.2734 11.4782 17.8594 13.8922C19.3594 13.4704 20.9531 13.2594 22.5469 13.2594C24.1406 13.2594 25.7344 13.4704 27.2344 13.8922C30.8203 11.4547 32.3906 11.9704 32.3906 11.9704C33.4219 14.5485 32.7656 16.4704 32.5781 16.9391C33.7734 18.2516 34.5 19.9157 34.5 21.9782C34.5 29.1735 30.1172 30.7672 25.9453 31.236C26.625 31.8219 27.2109 32.9469 27.2109 34.7047C27.2109 37.2125 27.1875 39.2282 27.1875 39.861C27.1875 40.3532 27.5391 40.9391 28.4766 40.7516C32.1988 39.495 35.4332 37.1028 37.7246 33.9117C40.016 30.7205 41.249 26.8911 41.25 22.9625C41.25 12.6032 32.8594 4.21255 22.5 4.21255Z" fill="white"/>
</svg>
